<svg xmlns="http://www.w3.org/2000/svg" version="1.1" xmlns:xlink="http://www.w3.org/1999/xlink" xmlns:svgjs="http://svgjs.dev/svgjs" width="100%" height="100%" viewBox="0 0 1000 600"><rect width="1000" height="600" x="0" y="0" fill="#d2302c"/><g><circle r="166.66666666666666" cx="269.3627726236979" cy="291.58500156230633" fill="#f7f7f9" transform="matrix(1.217183444641035,0,0,1.2171834446410348,0,-54.91242138832007)"/><path d="M142.74482243029342 364.976249566292L120.77736910231248 364.976249566292L120.77736910231248 218.19372051114684L142.74482243029342 218.19372051114684Q153.11834205739547 218.19372051114684 160.3298797660761 221.57759589752771Q167.51368079126178 224.98920796740356 171.89607678346 233.17152959840652Q176.30620945915314 241.35385122940954 178.24777730379787 255.63824322929608Q180.18934514844267 269.9226352291827 180.18934514844267 291.69593177269917L180.18934514844267 291.69593177269917Q180.18934514844267 313.5524383667003 178.24777730379787 327.7813569995971Q176.30620945915314 342.0102756324938 171.89607678346 350.1371238965069Q167.51368079126178 358.291708844015 160.3298797660761 361.62011086340596Q153.11834205739547 364.976249566292 142.74482243029342 364.976249566292L142.74482243029342 364.976249566292ZM142.35650886136443 239.77286027019878L142.35650886136443 343.39710980724004Q150.34467370790293 343.39710980724004 153.61760236030415 337.12861933738685Q156.91826769620025 330.83239218403884 157.61168478357342 319.15524843267525Q158.33283855444148 307.4503679978168 158.33283855444148 291.390828254255L158.33283855444148 291.390828254255Q158.33283855444148 275.1093950427337 157.61168478357342 263.5709347088448Q156.91826769620025 252.0324743749558 153.5898656768092 245.9026673225773Q150.23372697392324 239.77286027019878 142.35650886136443 239.77286027019878L142.35650886136443 239.77286027019878ZM215.026619618069 364.976249566292L195.05620750172267 364.976249566292L195.05620750172267 218.19372051114684L222.43231411121405 218.19372051114684L234.22040459655733 294.2754433377272L235.21892520237463 302.0694513998012L235.60723877130357 302.0694513998012L236.60575937712093 294.2754433377272L248.3938498624642 218.19372051114684L275.74221978846066 218.19372051114684L275.74221978846066 364.976249566292L255.77180767211433 364.976249566292L255.77180767211433 266.5110231593069L254.57913028183253 266.5110231593069L253.77476646047973 272.7240402621702L240.9881553693191 364.976249566292L229.81027192086418 364.976249566292L217.0236608297036 272.7240402621702L216.24703369184567 266.5110231593069L215.026619618069 266.5110231593069L215.026619618069 364.976249566292ZM313.29768924058965 364.976249566292L291.7185494815377 364.976249566292L291.7185494815377 218.19372051114684L313.29768924058965 218.19372051114684Q325.5850400288416 218.19372051114684 333.8228350268344 223.57463710916235Q342.0606300248272 228.9832903906728 346.13792249858125 238.85754971486625Q350.24295165583027 248.75954572255463 350.24295165583027 262.1286271671087L350.24295165583027 262.1286271671087Q350.24295165583027 275.4977086116627 345.9437657141168 285.2055478348866Q341.6445797724034 294.8856503746156 333.40678477441054 300.3220403396209Q325.1689897764177 305.75843030462624 313.29768924058965 306.257690607535L313.29768924058965 306.257690607535L313.29768924058965 364.976249566292ZM313.29768924058965 240.16117383912774L313.29768924058965 284.29023727955405Q318.98370935704935 284.29023727955405 322.28437469294545 282.0435659164651Q325.5850400288416 279.7968945533761 327.0273475705777 274.91523825826926Q328.46965511231383 270.0058452796675 328.46965511231383 262.3227839515731L328.46965511231383 262.3227839515731Q328.46965511231383 254.5287758894991 327.0273475705777 249.64711959439225Q325.5850400288416 244.76546329928536 322.22890132595563 242.46331856920654Q318.87276262306966 240.16117383912774 313.29768924058965 240.16117383912774L313.29768924058965 240.16117383912774ZM387.9925778924237 366.5849772089976L387.9925778924237 366.5849772089976Q379.0891024905527 366.5849772089976 373.2089255896285 363.6171520750407Q367.3010120052094 360.6770636245786 363.9171366188285 355.10199024209857Q360.53326123244756 349.4991801761236 359.0632170072165 341.6219620635648Q357.6209094654804 333.71700726751106 357.6209094654804 323.84274794331765L357.6209094654804 323.84274794331765L378.7839989721085 321.84570673168304Q378.7839989721085 326.64415297630507 379.1445758575426 331.08202233549315Q379.5051527429765 335.51989169468123 380.448199981804 339.0701871820317Q381.3912472206315 342.62048266938217 383.24960501479154 344.7007339315015Q385.08022612545665 346.80872187711583 387.9925778924237 346.80872187711583L387.9925778924237 346.80872187711583Q392.7632874535509 346.80872187711583 394.7603286651855 342.37085251792774Q396.7573698768201 337.90524647524484 396.7573698768201 331.63675600539165L396.7573698768201 331.63675600539165Q396.7573698768201 325.34052885204363 393.484441224419 318.5450413957869Q390.18377588852286 311.74955393953013 385.57948642836527 305.67522025414155L385.57948642836527 305.67522025414155Q377.78547836629116 295.27396394354446 371.96077483235683 286.3982252251684Q366.10833461492757 277.4947498232973 362.8631426460213 268.9241146233653Q359.617950677115 260.3257427399385 359.617950677115 250.95074371865374L359.617950677115 250.95074371865374Q359.617950677115 243.54504922550862 361.5317818382649 237.30429543915042Q363.4178763159198 231.06354165279222 367.05138185375506 226.43151550913967Q370.71262407508516 221.79948936548715 375.8993838886363 219.19224111696414Q381.0861437021873 216.58499286844116 387.7706844244643 216.58499286844116L387.7706844244643 216.58499286844116Q396.06395278944706 216.58499286844116 401.8054462728966 219.38639790142864Q407.5469397563461 222.1878029344161 411.09723524369656 227.37456274796713Q414.647530731047 232.56132256151818 416.2839950572477 239.71738690320893Q417.9481960669432 246.84571456140475 417.9481960669432 255.5272964953164L417.9481960669432 255.5272964953164L396.7573698768201 257.524337706951Q396.7573698768201 253.83535880212597 396.4245296748811 250.090906530311Q396.06395278944706 246.3464542584961 395.17637891760944 243.26768239055937Q394.2610683622769 240.16117383912774 392.56913066908646 238.27507936147282Q390.87719297589604 236.361248200323 388.18673467688825 236.361248200323L388.18673467688825 236.361248200323Q383.9984954691545 236.361248200323 382.38976782644886 239.9115436876734Q380.78104018374313 243.46183917502387 380.78104018374313 249.95222311283644L380.78104018374313 249.95222311283644Q380.78104018374313 258.3287015283039 385.2743829099211 266.1227095903779Q389.76772563609893 273.916717652452 397.3675769137085 284.29023727955405L397.3675769137085 284.29023727955405Q406.46520910004404 296.577588067806 412.20670258349367 306.86789764442335Q417.9481960669432 317.15820722104064 417.9481960669432 329.63971479375704L417.9481960669432 329.63971479375704Q417.9481960669432 337.51693290631584 416.2285216902578 344.2569469955827Q414.5365839970674 350.9969610848496 410.9030784592321 355.9895641139362Q407.2418362379019 360.98216714302276 401.61128948843213 363.7835721760102Q395.98074273896225 366.5849772089976 387.9925778924237 366.5849772089976Z " fill="#1a2fa0" transform="matrix(1.217183444641035,0,0,1.2171834446410348,0,-54.91242138832007)"/><path d="M544.9359947270162 364.976249566292L519.3627725446951 364.976249566292L519.3627725446951 218.19372051114684L541.330225872676 218.19372051114684Q552.508109321131 218.19372051114684 560.662694268639 222.13232956742624Q568.789542532652 226.07093862370564 573.2274118918402 234.47515372266804Q577.6652812510282 242.8516321381355 577.6652812510282 256.13750353220473L577.6652812510282 256.13750353220473Q577.6652812510282 266.73291662726626 574.9193495850307 274.61013473982507Q572.173417919033 282.4873528523839 564.2961998064742 287.47995588147046L564.2961998064742 287.47995588147046Q572.2843646530127 291.8900885571636 575.7791867733733 301.4315076794179Q579.2740088937339 310.9451901181774 579.2740088937339 323.4266976908937L579.2740088937339 323.4266976908937Q579.2740088937339 335.7140484791457 575.3353998374545 345.1167841839254Q571.3967907811751 354.4917832052102 563.7414661365757 359.7340163857511Q556.1138781754712 364.976249566292 544.9359947270162 364.976249566292L544.9359947270162 364.976249566292ZM540.941912303747 298.46368254546087L540.941912303747 343.6190032751994Q550.7052248939607 343.6190032751994 553.8117334453924 337.76656305777016Q556.9182419968241 331.9141228403409 556.9182419968241 321.0413429103301L556.9182419968241 321.0413429103301Q556.9182419968241 309.94666951236 553.8117334453924 304.2051760289105Q550.7052248939607 298.46368254546087 540.941912303747 298.46368254546087L540.941912303747 298.46368254546087ZM540.941912303747 239.5509668022394L540.941912303747 278.71516389707404Q550.0118078065876 278.71516389707404 553.4511565599583 273.72256086798745Q556.9182419968241 268.7299578389009 556.9182419968241 258.93890856519226L556.9182419968241 258.93890856519226Q556.9182419968241 249.03691255750388 553.3679465094737 244.2939396798716Q549.8176510221232 239.5509668022394 540.941912303747 239.5509668022394L540.941912303747 239.5509668022394ZM613.6120230604515 364.976249566292L592.0606199848945 364.976249566292L592.0606199848945 218.19372051114684L613.6120230604515 218.19372051114684Q625.8993738487035 218.19372051114684 634.1371688466963 223.57463710916235Q642.3749638446891 228.9832903906728 646.4799930019382 238.85754971486625Q650.5572854756922 248.75954572255463 650.5572854756922 262.1286271671087L650.5572854756922 262.1286271671087Q650.5572854756922 275.4977086116627 646.2858362174736 285.2055478348866Q641.9866502757602 294.8856503746156 633.7488552777673 300.3220403396209Q625.5110602797745 305.75843030462624 613.6120230604515 306.257690607535L613.6120230604515 306.257690607535L613.6120230604515 364.976249566292ZM613.6120230604515 240.16117383912774L613.6120230604515 284.29023727955405Q619.3257798604062 284.29023727955405 622.5987085128074 282.0435659164651Q625.8993738487035 279.7968945533761 627.3416813904396 274.91523825826926Q628.8117256156706 270.0058452796675 628.8117256156706 262.3227839515731L628.8117256156706 262.3227839515731Q628.8117256156706 254.5287758894991 627.3416813904396 249.64711959439225Q625.8993738487035 244.76546329928536 622.5709718293125 242.46331856920654Q619.2148331264265 240.16117383912774 613.6120230604515 240.16117383912774L613.6120230604515 240.16117383912774ZM690.1097961394557 366.5849772089976L690.1097961394557 366.5849772089976Q681.1231106870999 366.5849772089976 674.6882001162772 362.369001317769Q668.2532895454545 358.18076211003523 664.7862041085889 350.9969610848496Q661.3468553552182 343.81316005966386 661.3468553552182 334.82647460730806L661.3468553552182 334.82647460730806L661.3468553552182 248.34349547013076Q661.3468553552182 239.27359996729012 664.7862041085889 232.1175356255994Q668.2532895454545 224.98920796740356 674.6882001162772 220.80096875966981Q681.1231106870999 216.58499286844116 690.1097961394557 216.58499286844116L690.1097961394557 216.58499286844116Q699.0964815918117 216.58499286844116 705.5313921626343 220.80096875966981Q711.9663027334569 224.98920796740356 715.4333881703226 232.17300899258922Q718.8727369236934 239.3568100177749 718.8727369236934 248.34349547013076L718.8727369236934 248.34349547013076L718.8727369236934 334.82647460730806Q718.8727369236934 343.81316005966386 715.4333881703226 350.9969610848496Q711.9663027334569 358.18076211003523 705.5313921626343 362.369001317769Q699.0964815918117 366.5849772089976 690.1097961394557 366.5849772089976ZM690.1097961394557 345.616044486834L690.1097961394557 345.616044486834Q694.103878562725 345.616044486834 695.7126062054307 342.2599057839481Q697.2935971646414 338.9037670810621 697.2935971646414 334.82647460730806L697.2935971646414 334.82647460730806L697.2935971646414 248.34349547013076Q697.2935971646414 244.26620299637668 695.6016594714511 240.91006429349073Q693.9097217782605 237.55392559060476 690.1097961394557 237.55392559060476L690.1097961394557 237.55392559060476Q686.4208172346307 237.55392559060476 684.6734061744504 240.91006429349073Q682.9259951142701 244.26620299637668 682.9259951142701 248.34349547013076L682.9259951142701 248.34349547013076L682.9259951142701 334.82647460730806Q682.9259951142701 338.9037670810621 684.6179328074605 342.2599057839481Q686.309870500651 345.616044486834 690.1097961394557 345.616044486834Z " fill="#f7f7f9" transform="matrix(1.217183444641035,0,0,1.2171834446410348,0,-54.91242138832007)"/></g></svg>